<svg width="256" height="256" viewBox="0 0 256 256" fill="none" xmlns="http://www.w3.org/2000/svg">
<circle cx="128" cy="128" r="128" fill="#D9D9D9"/>
<path d="M124.696 61.0543V87.1929C124.696 89.6357 133.506 90.8572 151.125 90.8572C168.58 90.8572 177.308 93.87 177.308 99.8957C177.308 106.084 168.58 109.179 151.125 109.179C133.506 109.179 124.696 126.441 124.696 160.967C124.696 195.656 121.434 213 114.908 213C108.383 213 105.12 195.656 105.12 160.967C105.12 126.441 100.307 109.179 90.6824 109.179C80.8941 109.179 76 106.084 76 99.8957C76 93.87 80.8941 90.8572 90.6824 90.8572C100.307 90.8572 105.12 89.6357 105.12 87.1929V62.52L127.388 42H163.36C174.453 42 180 45.2571 180 51.7714C180 58.2857 174.453 61.5429 163.36 61.5429C157.813 61.5429 151.777 61.5429 145.252 61.5429C138.889 61.38 132.038 61.2171 124.696 61.0543Z" fill="black"/>
</svg>
